<?xml version="1.0" standalone="no"?>
<!DOCTYPE svg PUBLIC "-//W3C//DTD SVG 20010904//EN"
 "http://www.w3.org/TR/2001/REC-SVG-20010904/DTD/svg10.dtd">
<svg version="1.0" xmlns="http://www.w3.org/2000/svg"
 width="700.000000pt" height="700.000000pt" viewBox="0 0 700.000000 700.000000"
 preserveAspectRatio="xMidYMid meet">
<metadata>
Created by potrace 1.14, written by Peter Selinger 2001-2017
</metadata>
<g transform="translate(0.000000,700.000000) scale(0.100000,-0.100000)"
fill="#000000" stroke="none">
<path d="M3365 6614 c-167 -153 -357 -349 -470 -484 -43 -52 -117 -133 -164
-179 -47 -46 -149 -145 -226 -221 -77 -75 -172 -166 -211 -201 -40 -35 -92
-91 -117 -124 -51 -67 -136 -165 -236 -270 -120 -126 -131 -150 -88 -186 29
-24 34 -24 42 2 4 12 30 45 59 73 28 28 58 61 66 73 8 13 35 37 60 55 73 52
150 129 189 189 51 77 70 99 117 136 23 18 48 50 59 75 40 96 69 148 96 174
38 36 48 24 26 -34 -32 -82 -41 -112 -35 -117 12 -13 57 20 68 49 30 80 44
105 78 142 20 22 53 47 72 57 33 16 148 120 198 178 l22 26 -24 26 c-25 27
-26 46 -3 75 22 28 97 63 144 66 43 4 52 9 94 55 25 28 63 81 84 117 45 76 86
122 137 153 l36 22 87 -90 c48 -49 103 -101 123 -114 21 -13 62 -41 92 -60 30
-20 69 -49 85 -64 17 -15 73 -66 125 -112 176 -155 170 -149 170 -191 0 -31 8
-47 46 -89 51 -57 124 -111 149 -111 15 0 14 3 -1 30 -10 16 -27 40 -39 52
-11 13 -31 39 -45 58 -48 71 -787 809 -810 810 -3 0 -28 -21 -55 -46z"/>
<path d="M4419 5643 c48 -64 129 -145 140 -142 25 9 -115 169 -147 169 -9 0
-7 -8 7 -27z"/>
<path d="M4820 5201 c0 -13 26 -32 33 -24 8 7 -11 33 -24 33 -5 0 -9 -4 -9 -9z"/>
<path d="M1723 4919 c-101 -110 -387 -384 -702 -673 -143 -132 -267 -261 -280
-294 -12 -28 -12 -37 0 -59 11 -21 11 -27 2 -30 -20 -7 -15 -33 6 -33 28 0
157 134 235 243 73 104 116 147 147 147 18 0 470 443 554 543 56 67 95 137 95
170 0 37 -13 34 -57 -14z"/>
<path d="M3341 4885 c-35 -21 -46 -22 -67 -13 -23 11 -28 9 -43 -11 -10 -12
-34 -89 -55 -169 -44 -168 -211 -669 -284 -847 -27 -66 -70 -181 -95 -255 -25
-74 -62 -181 -82 -238 -34 -99 -73 -259 -72 -294 0 -21 17 -24 17 -4 0 22 39
83 57 90 12 5 14 1 8 -21 -3 -16 -13 -41 -21 -58 -17 -36 -19 -64 -9 -127 9
-59 0 -71 -68 -94 -82 -26 -94 -42 -141 -174 -47 -134 -51 -209 -9 -168 12 13
18 44 22 123 1 18 3 18 11 3 10 -17 18 -113 20 -238 1 -95 7 -106 51 -91 42
14 95 60 100 86 8 37 68 54 145 40 36 -6 44 -4 63 16 20 22 27 38 56 142 13
47 13 49 -16 81 -16 19 -36 50 -44 70 -23 55 -33 42 -50 -64 -9 -55 -37 -74
-73 -51 -37 23 -6 180 47 239 36 39 48 40 61 7 5 -14 17 -25 28 -25 16 0 99
63 125 95 6 7 10 6 13 -2 4 -8 18 -3 45 17 22 16 69 38 105 50 69 23 81 36 84
90 3 59 2 63 -24 56 -30 -7 -56 2 -56 20 0 24 39 54 69 54 30 0 41 -14 41 -54
0 -25 29 -61 70 -87 21 -14 23 -19 12 -32 -11 -13 -10 -16 8 -22 26 -8 136 -4
175 7 53 15 171 18 188 5 8 -7 25 -46 37 -87 12 -41 49 -158 82 -260 76 -238
118 -392 124 -455 11 -122 20 -137 97 -160 40 -12 48 -11 88 7 28 13 66 20
104 20 74 0 119 18 137 54 7 15 27 32 44 38 19 7 30 17 29 26 -1 8 -39 125
-84 260 -129 391 -170 549 -151 575 34 43 49 276 24 351 -32 95 -31 94 -66 95
-72 1 -86 10 -94 55 -2 16 -7 43 -11 59 -4 17 -7 32 -8 35 -16 87 -109 305
-126 294 -6 -4 -8 -31 -5 -68 5 -58 5 -60 -9 -31 -8 17 -14 43 -15 59 0 21
-13 41 -50 77 -27 27 -50 56 -50 66 0 10 18 40 40 67 31 38 40 57 40 86 0 40
-52 206 -70 224 -13 13 -13 -34 0 -69 11 -29 4 -75 -12 -75 -5 0 -6 5 -3 10 7
11 -12 50 -87 176 -55 94 -73 113 -90 96 -16 -16 -45 -15 -51 2 -3 7 8 28 25
46 53 58 62 111 27 166 -14 24 -32 37 -62 45 -84 24 -129 39 -176 63 l-48 25
-42 -24z m-207 -650 c7 -19 -7 -57 -27 -73 -12 -10 -16 -10 -20 2 -6 15 0 63
9 78 8 13 31 9 38 -7z m525 -18 c13 -6 26 -23 28 -37 2 -13 12 -33 22 -45 26
-28 39 -83 29 -122 -5 -18 -12 -33 -16 -34 -53 -5 -100 -39 -103 -75 -1 -8 -2
-23 -3 -33 -2 -28 -11 -34 -26 -16 -7 8 -17 15 -22 15 -16 0 0 -130 33 -258
17 -67 29 -125 26 -128 -2 -3 -27 -7 -53 -10 -91 -8 -172 -24 -211 -41 l-38
-16 27 -10 26 -10 -40 -31 c-71 -53 -68 -52 -78 -36 -15 22 -2 114 26 194 14
39 50 148 79 241 73 232 92 286 112 307 21 24 74 23 123 -2 22 -11 42 -20 45
-20 14 0 2 50 -20 80 -14 19 -25 46 -25 60 0 42 16 50 59 27z m198 -19 c-3 -7
-5 -2 -5 12 0 14 2 19 5 13 2 -7 2 -19 0 -25z m391 -1404 c2 -12 -4 -24 -12
-27 -19 -7 -40 18 -32 39 8 22 40 13 44 -12z m-1665 -49 c4 -8 2 -17 -3 -20
-6 -4 -10 3 -10 14 0 25 6 27 13 6z"/>
<path d="M624 3810 c-44 -22 -192 -169 -287 -284 l-56 -69 19 -26 c23 -32 87
-100 228 -245 113 -117 180 -195 225 -261 53 -80 247 -280 306 -316 46 -28
1095 -1066 1311 -1298 295 -317 381 -394 471 -425 24 -9 45 -20 48 -27 6 -20
118 -163 171 -219 29 -30 103 -108 164 -174 151 -161 187 -196 206 -196 22 0
937 925 1079 1091 36 43 95 99 131 125 80 58 169 146 1101 1076 407 406 739
745 739 753 0 22 -34 18 -88 -9 -80 -41 -141 -97 -570 -515 -151 -146 -320
-309 -375 -361 -148 -137 -458 -449 -562 -564 -50 -55 -160 -172 -246 -260
-86 -89 -183 -190 -215 -225 -100 -110 -107 -117 -169 -157 -44 -29 -75 -61
-122 -128 -74 -106 -94 -128 -131 -147 -83 -42 -225 -179 -286 -275 -30 -48
-51 -68 -100 -97 -35 -20 -87 -56 -116 -81 -30 -25 -61 -46 -70 -46 -9 0 -52
39 -96 87 -43 47 -110 111 -149 142 -38 30 -101 87 -139 126 -37 38 -148 151
-245 250 -180 183 -259 272 -300 339 -13 20 -39 47 -58 61 -20 13 -124 109
-232 213 -108 104 -214 204 -235 223 -51 44 -140 137 -203 214 -28 34 -102
105 -164 160 -63 54 -323 307 -579 561 -447 445 -541 535 -596 570 -54 36 -51
49 24 122 78 76 142 151 196 232 55 83 47 98 -30 60z"/>
<path d="M2812 2350 c-8 -13 -8 -20 -2 -20 6 0 13 7 17 15 9 24 -1 27 -15 5z"/>
</g>
</svg>
