<?xml version="1.0" standalone="no"?>
<!DOCTYPE svg PUBLIC "-//W3C//DTD SVG 20010904//EN"
 "http://www.w3.org/TR/2001/REC-SVG-20010904/DTD/svg10.dtd">
<svg version="1.0" xmlns="http://www.w3.org/2000/svg"
 width="395.000000pt" height="395.000000pt" viewBox="0 0 395.000000 395.000000"
 preserveAspectRatio="xMidYMid meet">

<g transform="translate(0.000000,395.000000) scale(0.100000,-0.100000)"
fill="#000000" stroke="none">
<path d="M1809 3647 c-64 -61 -143 -146 -175 -187 -33 -41 -75 -88 -94 -105
-19 -16 -88 -83 -153 -147 -65 -65 -122 -118 -127 -118 -6 0 -10 -5 -10 -11 0
-10 -87 -111 -177 -206 -47 -48 -50 -57 -29 -79 18 -18 26 -18 26 1 0 8 14 24
30 37 17 12 30 27 30 33 0 6 19 24 42 41 57 40 93 78 120 126 13 23 36 49 52
57 20 12 33 31 44 64 16 50 63 110 69 90 2 -6 -5 -29 -16 -51 -11 -22 -17 -42
-14 -45 10 -11 43 13 43 31 0 28 52 102 72 102 9 0 45 28 79 61 53 52 60 63
46 71 -10 5 -17 17 -17 26 1 24 68 65 95 58 17 -4 30 4 56 36 19 23 43 60 54
81 11 22 35 48 53 59 l32 20 53 -57 c28 -31 70 -66 92 -76 22 -11 70 -47 106
-82 36 -34 82 -75 102 -90 29 -22 36 -33 32 -50 -5 -17 5 -33 43 -70 62 -61
101 -63 47 -3 -19 22 -35 44 -35 48 0 10 -441 448 -450 448 -3 0 -57 -51 -121
-113z"/>
<path d="M2503 3172 c15 -15 36 -38 46 -52 11 -14 22 -22 26 -18 10 10 -66 98
-85 98 -11 0 -7 -8 13 -28z"/>
<path d="M2722 2931 c4 -13 18 -16 19 -4 0 4 -5 9 -11 12 -7 2 -11 -2 -8 -8z"/>
<path d="M965 2768 c-29 -36 -243 -240 -425 -406 -116 -106 -142 -141 -121
-166 9 -11 9 -15 0 -18 -7 -2 -10 -9 -8 -16 8 -22 92 58 146 138 42 64 58 80
78 80 13 0 29 8 34 18 5 9 42 49 82 87 183 175 242 243 253 288 9 36 -6 34
-39 -5z"/>
<path d="M1882 2754 c-17 -12 -26 -13 -36 -5 -21 17 -31 -3 -59 -119 -14 -58
-37 -136 -52 -175 -14 -38 -35 -99 -46 -135 -11 -36 -24 -73 -29 -83 -14 -24
-57 -138 -85 -222 -12 -38 -27 -81 -33 -95 -21 -51 -52 -166 -51 -190 1 -24 1
-23 15 7 13 32 34 52 34 35 0 -5 -7 -26 -15 -46 -11 -25 -13 -42 -6 -55 17
-31 2 -59 -34 -65 -18 -4 -40 -15 -49 -25 -18 -20 -56 -132 -56 -165 0 -16 2
-16 16 -6 9 8 14 25 12 43 -2 17 2 32 7 34 6 2 11 -34 11 -93 1 -52 4 -98 7
-101 12 -11 76 30 79 50 2 15 13 23 36 28 18 4 34 3 37 -1 2 -4 15 -5 28 -3
19 4 27 16 42 65 17 59 17 59 -3 74 -11 8 -22 23 -24 34 -5 35 -23 23 -26 -17
-4 -45 -13 -57 -39 -49 -39 13 4 156 47 156 5 0 10 -7 10 -15 0 -26 28 -16 66
23 21 20 34 31 30 25 -10 -19 4 -16 27 5 10 9 37 22 59 27 37 10 41 13 44 48
3 35 2 37 -21 31 -29 -7 -35 15 -10 36 23 19 50 8 48 -21 -1 -19 7 -30 29 -44
22 -13 27 -20 17 -26 -24 -15 42 -22 93 -10 58 13 115 14 122 3 3 -5 14 -40
24 -78 11 -38 25 -82 31 -99 31 -85 82 -266 80 -287 -4 -47 2 -58 37 -73 32
-13 39 -13 66 1 19 10 44 14 64 11 34 -6 69 12 69 34 0 7 8 13 18 15 11 1 21
5 25 8 3 3 -12 50 -32 103 -21 54 -48 139 -61 188 -13 50 -29 108 -37 130 -12
34 -12 44 1 70 15 31 23 163 10 180 -4 6 -9 21 -11 35 -2 21 -9 25 -36 26 -39
1 -40 2 -46 39 -23 127 -100 289 -82 174 4 -31 3 -39 -4 -29 -5 8 -10 27 -10
41 0 16 -10 33 -30 47 -37 27 -38 41 -5 72 31 29 31 48 3 131 -16 46 -24 58
-26 41 -2 -13 1 -28 6 -35 5 -7 6 -21 1 -32 -6 -15 -8 -16 -8 -4 -1 21 -81
159 -92 159 -4 0 -11 -5 -14 -10 -7 -11 -25 -4 -25 10 0 5 9 17 19 27 45 42
24 109 -37 118 -20 3 -54 15 -74 25 -44 24 -38 24 -66 4z m-112 -373 c0 -10
-7 -24 -15 -31 -13 -10 -15 -9 -15 12 0 14 3 28 7 31 12 13 23 7 23 -12z m301
-1 c5 0 9 -8 9 -18 0 -11 8 -26 18 -35 24 -22 18 -89 -8 -85 -26 5 -50 -21
-50 -55 0 -29 -1 -30 -15 -11 -13 18 -14 16 -15 -21 0 -22 9 -72 20 -110 11
-38 20 -73 20 -77 0 -5 -15 -8 -34 -8 -45 0 -136 -21 -136 -32 0 -4 8 -8 18
-8 15 -1 14 -2 -3 -12 -11 -6 -26 -18 -33 -27 -31 -39 -37 46 -7 109 6 14 17
45 24 70 7 25 27 90 45 145 29 93 34 100 60 103 15 2 38 -4 52 -13 23 -14 24
-14 24 4 0 10 -7 24 -15 31 -21 17 -20 64 1 56 9 -3 20 -6 25 -6z m106 -12
c-3 -8 -6 -5 -6 6 -1 11 2 17 5 13 3 -3 4 -12 1 -19z m223 -800 c0 -5 -7 -8
-15 -8 -15 0 -20 21 -8 33 7 7 23 -11 23 -25z m-943 -30 c-3 -8 -6 -5 -6 6 -1
11 2 17 5 13 3 -3 4 -12 1 -19z"/>
<path d="M330 2137 c-53 -46 -170 -176 -170 -188 0 -7 54 -66 120 -132 66 -66
128 -136 137 -156 16 -35 167 -191 185 -191 4 0 133 -125 286 -277 153 -153
291 -290 307 -305 17 -14 95 -97 175 -183 142 -154 202 -205 238 -205 11 0 25
-14 35 -35 9 -19 63 -83 120 -142 57 -59 116 -123 132 -141 16 -17 33 -32 39
-32 9 0 79 69 489 488 81 83 147 155 147 161 0 6 14 18 30 26 17 9 61 46 99
83 161 159 283 278 298 292 9 8 26 26 37 39 23 27 373 377 457 457 113 108
174 173 167 179 -14 15 -59 -7 -115 -54 -32 -27 -149 -138 -260 -248 -111
-109 -222 -216 -247 -238 -65 -58 -252 -246 -288 -292 -17 -21 -84 -90 -147
-155 -64 -64 -127 -130 -139 -147 -13 -17 -38 -39 -55 -48 -35 -17 -44 -28
-84 -88 -33 -50 -42 -59 -80 -78 -43 -23 -128 -109 -148 -151 -10 -21 -28 -39
-48 -47 -18 -7 -48 -28 -69 -47 -20 -19 -40 -33 -45 -31 -6 2 -32 29 -58 59
-27 30 -61 63 -77 72 -15 10 -51 41 -78 70 -28 29 -64 67 -81 83 -130 129
-197 202 -223 243 -14 23 -31 42 -36 42 -6 0 -65 54 -131 120 -66 66 -123 120
-126 120 -9 0 -107 103 -125 132 -10 15 -50 53 -89 85 -38 32 -116 104 -172
161 -352 357 -444 446 -490 477 -35 22 -34 35 6 64 38 29 137 155 137 176 0
13 -38 2 -60 -18z"/>
<path d="M1586 1323 c-6 -14 -5 -15 5 -6 7 7 10 15 7 18 -3 3 -9 -2 -12 -12z"/>
</g>
</svg>
