<?xml version="1.0" standalone="no"?>
<!DOCTYPE svg PUBLIC "-//W3C//DTD SVG 20010904//EN"
 "http://www.w3.org/TR/2001/REC-SVG-20010904/DTD/svg10.dtd">
<svg version="1.0" xmlns="http://www.w3.org/2000/svg"
 width="220px" height="140px" viewBox="0 0 220 140"
 preserveAspectRatio="xMidYMid meet">
<metadata>
</metadata>
<g transform="translate(0.000000,140.000000) scale(0.100000,-0.100000)"
fill="#660033" stroke="none">
<path d="M149 1083 l-144 -318 -3 -321 -3 -322 157 -4 c122 -3 159 -7 168 -19
21 -28 91 -76 126 -87 42 -14 150 -14 150 0 0 5 5 6 10 3 6 -3 10 -1 10 6 0 7
3 10 6 6 3 -3 19 6 34 20 28 25 28 26 12 51 l-16 25 224 -4 c124 -2 314 -2
423 -1 l197 2 0 298 0 297 25 0 25 0 0 -297 0 -298 75 0 c71 0 75 1 75 23 0
14 62 96 171 227 180 216 234 288 224 299 -4 3 -92 7 -196 9 -179 3 -189 4
-189 23 0 17 -7 19 -75 19 l-74 0 -42 63 c-23 34 -55 79 -71 99 l-29 37 50 48
c108 105 102 269 -14 371 -24 21 -60 43 -80 49 -22 7 -129 12 -271 13 l-234 1
0 -341 c0 -220 -4 -340 -10 -340 -14 0 -13 -388 1 -431 26 -76 92 -119 183
-119 92 0 143 30 177 105 16 35 19 67 19 243 l0 202 -55 0 -55 0 0 81 0 80 27
-3 c22 -2 40 -20 80 -78 l53 -75 -2 -220 -3 -220 -28 -47 c-18 -31 -44 -57
-75 -75 -42 -25 -57 -28 -138 -28 -83 0 -94 2 -140 30 -31 20 -58 47 -74 75
-24 44 -25 52 -28 261 -3 211 -3 216 17 215 11 -1 21 3 22 7 1 5 -65 159 -147
342 l-149 334 -126 1 -127 0 -143 -317z m1123 110 c24 -22 24 -77 -2 -103 -16
-16 -33 -20 -80 -20 l-60 0 0 70 0 70 62 0 c43 0 67 -5 80 -17z m-705 -419
l22 -56 -169 4 c-189 3 -176 -3 -144 75 l14 33 128 0 127 0 22 -56z m-73 -98
c100 -59 152 -158 144 -275 -6 -78 -31 -131 -85 -182 -68 -66 -115 -83 -223
-84 -84 0 -102 3 -152 28 -62 30 -105 74 -140 140 -18 33 -23 59 -23 117 0 85
21 142 74 202 33 38 113 83 143 81 10 -1 20 1 22 5 2 4 48 4 101 1 76 -6 104
-13 139 -33z"/>
<path d="M225 664 c-138 -49 -204 -214 -141 -350 89 -192 393 -192 482 0 62
133 4 286 -131 347 -49 22 -152 24 -210 3z"/>
<path d="M1550 1304 l0 -95 105 3 105 3 0 -253 0 -253 123 3 122 3 3 246 2
246 47 7 c25 3 68 6 94 6 l49 0 0 90 0 90 -325 0 -325 0 0 -96z"/>
<path d="M2180 698 c-1 -13 -22 -48 -48 -79 -26 -31 -92 -112 -148 -180 -56
-68 -122 -149 -148 -179 -87 -101 -99 -94 142 -87 l211 6 4 -27 c2 -15 5 107
6 271 0 192 -3 297 -9 297 -5 0 -10 -10 -10 -22z"/>
</g>
</svg>
