<?xml version="1.0" standalone="no"?>
<!DOCTYPE svg PUBLIC "-//W3C//DTD SVG 20010904//EN"
 "http://www.w3.org/TR/2001/REC-SVG-20010904/DTD/svg10.dtd">
<svg version="1.0" xmlns="http://www.w3.org/2000/svg"
 width="395.000000pt" height="395.000000pt" viewBox="0 0 395.000000 395.000000"
 preserveAspectRatio="xMidYMid meet">

<g transform="translate(0.000000,395.000000) scale(0.100000,-0.100000)"
fill="#000000" stroke="none">
<path d="M416 3935 c-69 -19 -137 -69 -247 -182 -110 -113 -142 -163 -160
-251 -16 -76 -2 -162 38 -232 15 -27 271 -291 649 -670 l624 -625 -624 -625
c-379 -380 -634 -643 -649 -670 -40 -70 -54 -156 -38 -233 18 -90 50 -138 175
-263 125 -125 173 -157 263 -175 77 -16 163 -2 233 38 27 15 291 271 670 649
l625 624 625 -624 c380 -379 643 -634 670 -649 70 -39 156 -54 233 -38 89 18
154 61 271 181 117 120 149 170 167 258 16 76 2 162 -38 232 -15 27 -270 290
-649 670 l-624 625 624 625 c378 379 634 643 649 670 40 70 54 156 38 233 -18
90 -50 138 -175 263 -125 125 -173 157 -263 175 -77 16 -163 2 -233 -38 -27
-15 -291 -271 -670 -649 l-625 -624 -610 610 c-336 336 -633 626 -661 646 -86
59 -187 76 -288 49z"/>
</g>
</svg>
