<?xml version="1.0" standalone="no"?>
<!DOCTYPE svg PUBLIC "-//W3C//DTD SVG 20010904//EN"
 "http://www.w3.org/TR/2001/REC-SVG-20010904/DTD/svg10.dtd">
<svg version="1.0" xmlns="http://www.w3.org/2000/svg"
 width="630px" height="630px" viewBox="0 0 630 630"
 preserveAspectRatio="xMidYMid meet">

<g transform="translate(0,630) scale(0.1,-0.1)"
fill="#1E1F26" stroke="none">
<path d="M2988 5495 c-100 -90 -148 -141 -148 -153 0 -4 -18 -26 -40 -47 -22
-21 -40 -44 -40 -51 0 -6 -30 -38 -67 -70 -72 -63 -293 -283 -293 -292 0 -3
-24 -30 -54 -61 -118 -123 -166 -175 -166 -181 0 -4 9 -15 20 -25 19 -17 20
-17 27 1 8 23 116 134 130 134 15 0 59 51 90 105 18 30 38 51 52 55 17 4 29
20 45 62 22 59 48 98 66 98 13 0 13 0 -10 -48 -22 -44 -25 -62 -12 -62 15 0
39 33 46 63 8 35 44 77 66 77 9 0 38 23 64 50 26 28 52 50 57 50 15 0 10 30
-6 36 -24 10 -17 31 15 51 17 9 30 21 30 26 0 5 13 7 29 4 25 -5 34 0 68 41
22 26 43 57 47 69 7 22 70 83 86 83 5 0 32 -26 60 -58 29 -33 69 -67 91 -76
21 -9 67 -45 102 -79 35 -34 80 -75 101 -91 28 -21 36 -34 33 -48 -7 -25 76
-118 104 -118 26 0 24 6 -11 43 -16 18 -30 37 -30 44 0 6 -32 42 -72 80 -39
37 -141 137 -226 221 -84 83 -155 152 -158 152 -2 0 -45 -38 -96 -85z"/>
<path d="M3640 5014 c0 -4 8 -14 18 -23 10 -9 25 -28 35 -43 17 -27 37 -37 37
-19 0 12 -70 91 -81 91 -5 0 -9 -3 -9 -6z"/>
<path d="M3837 4779 c7 -7 15 -10 18 -7 3 3 -2 9 -12 12 -14 6 -15 5 -6 -5z"/>
<path d="M3876 4745 c4 -8 10 -15 15 -15 5 0 9 7 9 15 0 8 -7 15 -15 15 -9 0
-12 -6 -9 -15z"/>
<path d="M2065 4537 c-100 -102 -328 -321 -424 -407 -66 -59 -72 -68 -67 -96
2 -18 -1 -37 -7 -43 -6 -6 -8 -13 -5 -16 13 -14 98 68 148 142 46 69 59 82 83
83 15 0 27 5 27 11 0 6 69 79 153 163 84 83 161 163 170 178 17 28 23 69 10
67 -5 0 -44 -38 -88 -82z"/>
<path fill="#4D648D" d="M3030 4570 c-18 -18 -20 -18 -29 -2 -17 29 -30 2 -60 -119 -25 -101
-43 -156 -71 -224 -5 -11 -16 -45 -25 -75 -10 -30 -24 -71 -32 -90 -22 -50
-29 -68 -51 -130 -43 -115 -74 -206 -83 -237 -5 -18 -14 -50 -20 -70 -19 -67
-22 -93 -10 -93 6 0 11 8 11 18 1 22 28 58 37 49 3 -4 -3 -25 -14 -47 -18 -33
-20 -44 -10 -69 13 -36 4 -50 -37 -53 -36 -3 -60 -34 -80 -101 -26 -91 -28
-107 -11 -101 9 4 15 19 15 40 0 22 8 43 21 57 l21 22 -11 -22 c-14 -27 -15
-210 -1 -218 6 -3 10 -2 10 3 0 6 12 13 26 16 16 4 29 17 36 36 6 19 17 30 28
30 10 0 26 3 36 7 15 6 16 1 11 -38 -5 -36 -4 -41 6 -24 11 19 13 25 16 44 0
5 10 11 21 14 13 3 20 14 20 30 0 14 5 29 10 32 17 10 11 55 -10 77 -11 12
-20 30 -20 40 0 10 -4 18 -9 18 -12 0 -21 -26 -21 -60 0 -33 -15 -47 -34 -30
-11 8 -16 8 -20 -2 -3 -7 -3 -2 1 12 3 14 5 39 5 56 -1 23 8 39 33 64 33 32
35 32 35 12 0 -12 4 -22 8 -22 18 0 62 26 62 36 0 6 8 18 17 25 10 8 14 9 10
2 -14 -24 13 -23 28 1 11 17 30 27 58 31 52 9 63 15 46 26 -11 7 -12 12 -2 28
14 23 3 34 -22 25 -13 -5 -16 -2 -13 17 2 19 9 24 33 24 27 0 30 -3 30 -30 0
-21 6 -33 22 -40 13 -5 22 -16 20 -25 -2 -17 38 -18 145 -5 55 7 57 7 71 -21
8 -16 17 -46 21 -68 4 -21 13 -52 21 -70 7 -17 19 -51 26 -76 7 -25 23 -79 37
-120 13 -41 24 -90 24 -110 -1 -50 7 -70 27 -70 9 0 22 -5 28 -11 8 -8 21 -6
47 6 24 11 49 16 71 12 37 -6 65 11 65 39 0 8 5 12 10 9 6 -4 17 -2 25 5 12
10 11 18 -6 57 -10 24 -19 49 -19 54 0 5 -9 28 -20 52 -17 37 -35 96 -80 276
-6 24 -5 42 5 61 16 30 19 176 5 185 -6 3 -10 18 -10 32 0 23 -3 25 -29 20
-33 -7 -51 7 -51 40 0 12 -4 32 -9 45 -5 13 -19 56 -32 96 -27 87 -44 105 -37
38 3 -25 2 -46 -2 -46 -9 0 -20 36 -20 68 0 13 -6 22 -15 22 -8 0 -22 12 -31
26 -17 25 -17 26 14 55 18 17 32 33 32 37 1 17 -46 152 -52 152 -12 0 -9 -48
3 -52 6 -2 9 -17 7 -33 -4 -26 -5 -28 -12 -10 -42 104 -106 199 -106 156 0 -6
-4 -11 -10 -11 -17 0 -11 36 10 55 27 24 25 56 -5 89 -17 18 -33 26 -53 24
-16 -1 -42 7 -59 20 -38 27 -48 27 -73 2z m-105 -383 c-8 -18 -35 -31 -35 -16
0 6 5 20 11 31 12 23 33 11 24 -15z m305 5 c0 -7 9 -25 19 -40 23 -32 19 -111
-4 -92 -21 17 -54 -21 -48 -54 3 -15 1 -26 -6 -26 -6 0 -11 7 -11 15 0 8 -4
15 -10 15 -16 0 -11 -60 10 -130 29 -96 29 -96 -39 -103 -32 -4 -71 -12 -87
-18 l-29 -12 25 -7 25 -7 -27 -7 c-15 -5 -29 -14 -32 -23 -3 -8 -11 -11 -17
-7 -12 7 -4 100 10 119 7 9 14 32 44 135 5 19 18 58 28 85 10 28 19 59 21 70
4 26 68 34 91 11 19 -20 27 -20 27 -3 0 8 -9 22 -20 32 -18 17 -26 45 -15 56
10 10 45 4 45 -9z m110 3 c0 -8 -4 -15 -10 -15 -5 0 -10 7 -10 15 0 8 5 15 10
15 6 0 10 -7 10 -15z m210 -801 c0 -8 -7 -14 -15 -14 -15 0 -21 21 -9 33 10 9
24 -2 24 -19z m-934 -41 c-10 -10 -19 5 -10 18 6 11 8 11 12 0 2 -7 1 -15 -2
-18z"/>
<path d="M1510 3975 c-35 -19 -190 -190 -190 -210 0 -9 53 -69 118 -134 65
-64 125 -132 134 -152 9 -19 28 -44 42 -57 14 -12 26 -26 26 -30 0 -5 28 -31
63 -58 34 -26 91 -78 127 -114 36 -36 113 -111 170 -166 58 -56 130 -128 160
-160 30 -33 93 -95 140 -140 88 -83 325 -333 348 -365 16 -23 93 -69 116 -69
10 0 23 -14 31 -34 14 -33 279 -316 296 -316 4 0 36 29 71 64 35 36 99 100
143 143 43 43 87 87 97 98 10 11 85 88 167 172 82 84 152 160 155 170 3 10 18
24 33 31 24 11 393 369 478 463 17 19 128 131 248 249 367 362 346 340 310
340 -42 0 -130 -78 -453 -400 -96 -96 -129 -127 -169 -163 -8 -6 -80 -79 -160
-162 -80 -82 -196 -200 -258 -261 -62 -62 -113 -116 -113 -120 0 -14 -70 -84
-84 -84 -16 0 -69 -58 -84 -92 -6 -15 -30 -40 -53 -55 -68 -45 -151 -126 -165
-160 -8 -18 -28 -40 -47 -49 -17 -9 -51 -33 -74 -52 -42 -33 -73 -38 -73 -10
0 15 -185 188 -201 188 -4 0 -16 16 -28 35 -11 19 -38 47 -60 62 -22 16 -45
39 -51 53 -6 14 -26 35 -45 48 -19 12 -46 40 -60 62 -14 22 -45 59 -68 82
-177 174 -264 256 -280 261 -9 4 -20 14 -24 24 -13 33 -210 233 -230 233 -5 0
-37 28 -70 63 -33 34 -76 76 -94 93 -19 17 -50 52 -69 78 -19 25 -39 46 -45
46 -5 0 -21 14 -34 30 -55 71 -290 290 -310 290 -21 0 -11 40 14 56 14 9 45
43 69 74 73 95 85 131 36 105z"/>
<path fill="#4D648D" d="M3425 1581 c-180 -27 -318 -146 -371 -320 -21 -71 -18 -205 7 -282
47 -143 126 -223 284 -289 43 -18 200 -24 265 -10 30 6 67 14 82 17 22 4 33
-1 54 -26 14 -17 33 -31 42 -31 10 0 42 22 72 49 l54 48 -19 28 c-11 15 -24
33 -29 39 -5 7 4 30 24 59 93 138 103 327 25 484 -83 169 -283 264 -490 234z
m150 -174 c54 -16 106 -50 131 -84 48 -65 58 -96 58 -183 1 -81 -18 -170 -35
-170 -10 0 -45 36 -66 68 -22 32 -41 28 -106 -24 -62 -50 -62 -50 -9 -108 50
-55 44 -66 -37 -66 -117 0 -202 52 -249 153 -33 69 -31 199 3 270 32 69 82
115 147 137 63 22 109 24 163 7z"/>
<path fill="#4D648D" d="M402 1468 c-52 -134 -151 -390 -214 -553 -57 -149 -67 -173 -79 -197
-18 -36 -11 -39 98 -36 l107 3 22 55 c12 30 25 63 28 73 5 16 21 17 197 15
l191 -3 28 -70 28 -70 97 -3 c54 -1 102 1 107 6 4 4 -5 42 -21 83 -38 97 -140
361 -203 524 -27 72 -53 139 -58 150 -4 11 -17 43 -27 70 l-19 50 -121 3 -121
3 -40 -103z m191 -173 c8 -27 30 -88 47 -135 34 -90 50 -140 50 -152 0 -11
-248 -10 -254 1 -5 8 5 42 64 201 18 47 34 94 37 105 8 28 25 47 33 38 4 -4
14 -30 23 -58z"/>
<path d="M1107 1564 c-8 -9 -10 -845 -1 -868 9 -23 179 -23 188 0 3 9 6 81 6
160 l0 144 64 0 c72 0 64 7 136 -125 18 -33 50 -90 72 -127 l39 -68 104 0 c65
0 105 4 105 10 0 6 -11 27 -24 48 -51 81 -156 263 -156 272 0 5 14 17 31 25
101 53 154 148 147 267 -4 84 -25 133 -76 184 -76 76 -87 79 -372 82 -140 2
-259 0 -263 -4z m478 -195 c32 -28 35 -36 35 -83 0 -39 -5 -58 -21 -75 -32
-35 -61 -41 -185 -41 l-114 0 0 115 0 115 125 0 124 0 36 -31z"/>
<path d="M1906 1554 c-11 -28 -6 -130 6 -142 8 -8 52 -12 130 -12 l118 0 0
-349 c0 -287 2 -351 14 -360 9 -8 45 -11 98 -9 l83 3 3 357 2 357 128 3 127 3
0 80 0 80 -351 3 c-314 2 -352 1 -358 -14z"/>
<path d="M4107 1563 c-11 -11 -8 -584 4 -628 28 -109 89 -182 189 -228 113
-51 299 -50 416 4 83 37 128 90 173 202 7 19 11 133 11 343 l0 315 -92 -3 -93
-3 -5 -295 c-5 -292 -5 -295 -30 -338 -36 -63 -90 -92 -172 -92 -76 0 -123 17
-158 57 -50 56 -50 56 -50 357 0 156 -3 291 -6 300 -5 13 -23 16 -93 16 -48 0
-91 -3 -94 -7z"/>
<path d="M5082 1128 l3 -443 90 0 90 0 0 440 0 440 -93 3 -92 3 2 -443z"/>
<path d="M5417 1563 c-9 -8 -9 -126 -1 -147 5 -14 33 -16 205 -16 109 0 199
-3 199 -6 0 -3 -37 -56 -83 -118 -46 -61 -138 -185 -206 -276 l-122 -164 3
-76 3 -75 329 -3 c234 -2 333 1 342 9 18 14 19 130 2 147 -9 9 -69 12 -210 12
-152 0 -198 3 -198 13 0 6 25 46 56 87 31 41 95 129 144 195 49 66 113 154
144 195 l56 75 0 78 0 77 -328 0 c-181 0 -332 -3 -335 -7z"/>
</g>
</svg>
